<?xml version="1.0" encoding="UTF-8" standalone="no"?>
<svg width="122px" height="36px" viewBox="0 0 122 36" version="1.1" xmlns="http://www.w3.org/2000/svg" xmlns:xlink="http://www.w3.org/1999/xlink">
    <defs>
        <polygon id="path-1" points="0.000100961538 0.0402546296 34.8867548 0.0402546296 34.8867548 35.287037 0.000100961538 35.287037"></polygon>
        <polygon id="path-3" points="34.8867548 35.2870199 34.8867548 0.0402546296 5.04807692e-05 0.0402546296 5.04807692e-05 35.2870199"></polygon>
    </defs>
    <g id="Dashboard" stroke="none" stroke-width="1" fill="none" fill-rule="evenodd">
        <g id="Troll-Board---Dashboard-dark" transform="translate(-171.000000, -13.000000)">
            <g id="Group-7" transform="translate(171.000000, 13.000000)">
                <text id="Trolli" font-family="Bungee-Regular, Bungee" font-size="20" font-weight="normal" letter-spacing="-0.201176435" fill="#FFFFFF">
                    <tspan x="41" y="26">Trolli</tspan>
                </text>
                <g id="Page-1">
                    <g id="Group-3" transform="translate(0.000000, 0.131042)">
                        <mask id="mask-2" fill="white">
                            <use xlink:href="#path-1"></use>
                        </mask>
                        <g id="Clip-2"></g>
                        <path d="M1.52546154,28.4047801 C2.47517308,29.3926458 3.7323125,29.9682014 5.07880288,30.0350069 C8.31865865,33.3745995 12.796976,35.2871227 17.3883702,35.2871227 C18.3900769,35.2871227 19.4017115,35.1970208 20.3951731,35.0197292 C23.9756058,34.380794 27.2004856,32.6590949 29.7299087,30.0384329 C32.5862788,29.9378819 34.8868558,27.529456 34.8868558,24.6030301 C34.8868558,23.6650116 34.6506058,22.7466921 34.2025048,21.9380023 C34.794476,19.543794 34.8796202,17.0829514 34.4554135,14.6207384 C33.0005577,6.1722338 25.8378413,0.0401689815 17.4240433,0.0401689815 C16.4225048,0.0401689815 15.4108702,0.130099537 14.4169038,0.3075625 C9.86303365,1.12019213 5.89238462,3.68963657 3.23659135,7.54243287 C0.580966346,11.3955718 -0.441774038,16.0705903 0.356663462,20.7065532 C0.432216346,21.1460995 0.526278846,21.5904421 0.636158654,22.0293032 C0.219524038,22.816581 0.000100961538,23.7033819 0.000100961538,24.6030301 C0.000100961538,26.0312986 0.541759615,27.381456 1.52546154,28.4047801" id="Fill-1" fill="#57585A" mask="url(#mask-2)"></path>
                    </g>
                    <g id="Group-6" transform="translate(0.000000, 0.131042)">
                        <mask id="mask-4" fill="white">
                            <use xlink:href="#path-3"></use>
                        </mask>
                        <g id="Clip-5"></g>
                        <path d="M3.46959375,22.6314782 L3.5644976,22.4959829 L3.51872837,22.3363347 L3.38091587,21.857219 C3.22711779,21.3222606 3.10175721,20.7758255 3.00836779,20.2333301 C2.33411298,16.3183532 3.19800721,12.3704875 5.44053125,9.11688565 C7.68322356,5.8632838 11.0361563,3.69347361 14.8819495,3.00708935 C15.7227909,2.8570338 16.5781034,2.78080694 17.4241611,2.78080694 C24.5274784,2.78080694 30.5749063,7.95943657 31.8036082,15.0942699 C32.1928149,17.3540106 32.0751947,19.6060431 31.4537764,21.7876727 L31.3137764,22.2792931 L31.2669976,22.4430523 L31.3672861,22.5797468 L31.668488,22.9898301 C32.0125986,23.4583255 32.1944976,24.0160662 32.1944976,24.6030986 C32.1944976,26.0906356 31.0056755,27.3010153 29.5442572,27.3010153 C29.4629832,27.3010153 29.3783438,27.2967329 29.2930313,27.2885106 L28.7925986,27.2400338 L28.6256755,27.2239319 L28.5124303,27.3496634 L28.172863,27.7273718 C25.985363,30.1599505 23.1350505,31.7482097 19.9301947,32.3201681 C19.0896899,32.4702236 18.2345457,32.5462792 17.3883197,32.5462792 C13.3236082,32.5462792 9.40613221,30.7911773 6.64029087,27.7311403 L6.30779087,27.3633671 L6.19706971,27.2408903 L6.03401683,27.2537375 L5.5446899,27.2927931 C5.47553125,27.2982745 5.40755048,27.3010153 5.34243029,27.3010153 C3.88118029,27.3010153 2.69235817,26.0906356 2.69235817,24.6030986 C2.69235817,24.0390199 2.86264663,23.4977236 3.18488221,23.0379644 L3.46959375,22.6314782 Z M1.52541106,28.4048486 C2.4751226,29.3925431 3.73226202,29.9682699 5.0787524,30.0350755 C8.31860817,33.3744968 12.7969255,35.2870199 17.3883197,35.2870199 C18.3900264,35.2870199 19.4018293,35.1970894 20.3951226,35.0197977 C23.9757236,34.3806912 27.2004351,32.6591634 29.7300264,30.0383301 C32.5863966,29.9377792 34.8868053,27.5293532 34.8868053,24.6030986 C34.8868053,23.6649088 34.6507236,22.7467606 34.2026226,21.9378995 C34.7944255,19.5438625 34.8795697,17.0830199 34.4555313,14.6208069 C33.0006755,6.17230231 25.8377909,0.0402375 17.4241611,0.0402375 C16.4224543,0.0402375 15.4108197,0.130168056 14.4170216,0.307459722 C9.86298317,1.12026065 5.89233413,3.68970509 3.23670913,7.54250139 C0.580915865,11.395469 -0.441824519,16.0704875 0.356612981,20.7064505 C0.432334135,21.1461681 0.526228365,21.5903394 0.636276442,22.0292005 C0.219641827,22.8166495 5.04807692e-05,23.7032792 5.04807692e-05,24.6030986 C5.04807692e-05,26.0313671 0.541709135,27.3813532 1.52541106,28.4048486 L1.52541106,28.4048486 Z" id="Fill-4" fill="#F7931D" mask="url(#mask-4)"></path>
                    </g>
                    <path d="M28.8438197,20.0441847 C28.3088918,20.0441847 27.875262,19.6027542 27.875262,19.0580319 C27.875262,18.513481 28.3088918,18.0720505 28.8438197,18.0720505 C29.1482187,18.0720505 29.4194687,18.2152542 29.5971611,18.4387958 C29.5231226,17.8303514 29.3149736,17.2511986 28.979613,16.7366245 L22.4489159,16.7366245 C22.023363,17.3894347 21.7992284,18.1455366 21.7992284,18.9346986 C21.7992284,21.1324301 23.5554543,22.9204208 25.7141803,22.9204208 C27.6053582,22.9204208 29.1874255,21.5483375 29.5507187,19.7308838 C29.3738678,19.9232495 29.1229784,20.0441847 28.8438197,20.0441847" id="Fill-7" fill="#FBE2ED"></path>
                    <path d="M7.57369712,20.0441847 C7.21242308,20.0441847 6.89792788,19.842569 6.73150962,19.5441708 C7.02042788,21.4536106 8.64557212,22.9204208 10.6006923,22.9204208 C12.7594183,22.9204208 14.5158125,21.1324301 14.5158125,18.9346986 C14.5158125,18.1455366 14.2916779,17.3894347 13.866125,16.7366245 L7.33542788,16.7366245 C6.96254327,17.3085829 6.74446635,17.9595088 6.69600481,18.6426384 C6.85013942,18.3058699 7.18465865,18.0720505 7.57369712,18.0720505 C8.108625,18.0720505 8.54225481,18.513481 8.54225481,19.0580319 C8.54225481,19.6027542 8.108625,20.0441847 7.57369712,20.0441847" id="Fill-9" fill="#FBE2ED"></path>
                    <path d="M15.4844038,14.8261741 C15.4844038,15.1665398 15.2133221,15.4424981 14.8789712,15.4424981 L6.32248077,15.4424981 C5.98812981,15.4424981 5.71704808,15.1665398 5.71704808,14.8261741 C5.71704808,14.4858083 5.98812981,14.20985 6.32248077,14.20985 L14.8789712,14.20985 C15.2133221,14.20985 15.4844038,14.4858083 15.4844038,14.8261741 L15.4844038,14.8261741 Z M16.4196442,20.5863546 C16.4470721,20.3840537 16.6304856,20.2420491 16.8290433,20.2706556 C16.8589952,20.2747667 16.8867596,20.2835028 16.9136827,20.2944657 C17.0652933,20.3559611 17.1625529,20.515438 17.1391635,20.6874194 C17.0435865,21.3938454 17.0360144,21.6002574 17.0360144,21.6466787 C17.0360144,22.0773176 17.380125,22.4274472 17.8031538,22.4274472 C17.9059663,22.4274472 18.0784423,22.4130583 18.2608462,22.3974704 C18.9117115,22.3424843 19.3579615,22.3166185 19.6181058,22.4538269 C19.7402692,22.5182343 19.8708462,22.5507806 20.006976,22.5507806 C20.3255096,22.5507806 20.6142596,22.3721185 20.7604856,22.0846833 C20.8648125,21.879813 20.8843317,21.6461648 20.8158462,21.426563 C20.7473606,21.2069611 20.5989471,21.0276139 20.3978654,20.9215815 C18.7639712,20.0601324 19.3130337,17.9449657 19.3811827,17.7065213 C19.5156298,17.2500167 19.2623846,16.7688454 18.817649,16.6306093 C18.7229135,16.6011463 18.6254856,16.5889843 18.5273846,16.5936093 C18.4733702,16.5970352 18.4218798,16.5871 18.3745962,16.5679148 C18.2472163,16.516012 18.1538269,16.3916509 18.1465913,16.2427944 C18.1366635,16.0387806 18.2909663,15.8652574 18.4912067,15.8549796 C18.6729375,15.8459009 18.8543317,15.868512 19.0296683,15.9231556 C19.8558702,16.1799287 20.3258462,17.0739241 20.0778173,17.9158454 C20.0276731,18.0914241 19.613226,19.6750583 20.7320481,20.2648315 C21.1052692,20.4616509 21.3808942,20.7948222 21.508274,21.2026787 C21.6354856,21.6107065 21.5991394,22.0447713 21.4056298,22.4247065 C21.1340433,22.958637 20.5981058,23.290438 20.006976,23.290438 C19.7570962,23.290438 19.5070481,23.2280861 19.2840913,23.1105769 C19.1555337,23.063813 18.592,23.1116046 18.3210865,23.1345583 C18.1144519,23.1518593 17.9360865,23.1671046 17.8031538,23.1671046 C16.979476,23.1671046 16.3095962,22.4850028 16.3095962,21.6466787 C16.3095962,21.4817204 16.3466154,21.1249102 16.4196442,20.5863546 L16.4196442,20.5863546 Z M21.4360865,14.20985 L29.9925769,14.20985 C30.3269279,14.20985 30.5978413,14.4858083 30.5978413,14.8261741 C30.5978413,15.1665398 30.3269279,15.4424981 29.9925769,15.4424981 L21.4360865,15.4424981 C21.1017356,15.4424981 20.8306538,15.1665398 20.8306538,14.8261741 C20.8306538,14.4858083 21.1017356,14.20985 21.4360865,14.20985 L21.4360865,14.20985 Z M31.5450288,25.1985074 C31.4703173,26.2848685 30.5783221,27.118225 29.5244519,27.118225 C29.477,27.118225 29.4295481,27.1166833 29.3815913,27.1130861 C29.1815192,27.0988685 29.0305817,26.922262 29.0445481,26.7185907 C29.0585144,26.5147481 29.2323365,26.3619519 29.4322404,26.375313 C29.7785385,26.4004935 30.1140673,26.2858963 30.3762308,26.0537898 C30.6383942,25.8216833 30.7960625,25.4998176 30.8202933,25.1469472 C30.8702692,24.4187667 30.3289471,23.7849704 29.6134663,23.7340954 C29.4133942,23.7198778 29.2624567,23.5431 29.2764231,23.3394287 C29.2903894,23.1355861 29.4642115,22.9815907 29.6641154,22.9963222 C30.7790673,23.0756324 31.6227692,24.0634981 31.5450288,25.1985074 L31.5450288,25.1985074 Z M21.0727933,18.9347157 C21.0727933,17.9256093 21.3817356,16.9622389 21.9663029,16.1485815 C22.0346202,16.053512 22.1436587,15.9971556 22.2594279,15.9971556 L29.1690673,15.9971556 C29.2848365,15.9971556 29.393875,16.053512 29.4621923,16.1485815 C30.0467596,16.9622389 30.3557019,17.9256093 30.3557019,18.9347157 C30.3557019,21.5401324 28.2735385,23.6599241 25.7141635,23.6599241 C23.1549567,23.6599241 21.0727933,21.5401324 21.0727933,18.9347157 L21.0727933,18.9347157 Z M6.59070192,25.6731694 C6.25635096,25.6731694 5.98526923,25.3972111 5.98526923,25.0568454 C5.98526923,24.7164796 6.25635096,24.4405213 6.59070192,24.4405213 L29.3021683,24.4405213 C29.6365192,24.4405213 29.907601,24.7164796 29.907601,25.0568454 C29.907601,25.3972111 29.6365192,25.6731694 29.3021683,25.6731694 L6.59070192,25.6731694 Z M5.9591875,18.9347157 C5.9591875,17.9256093 6.26812981,16.9622389 6.85269712,16.1485815 C6.92118269,16.053512 7.03005288,15.9971556 7.14582212,15.9971556 L14.0554615,15.9971556 C14.171399,15.9971556 14.2802692,16.053512 14.3485865,16.1485815 C14.9333221,16.9622389 15.2422644,17.9256093 15.2422644,18.9347157 C15.2422644,21.5401324 13.160101,23.6599241 10.600726,23.6599241 C8.04135096,23.6599241 5.9591875,21.5401324 5.9591875,18.9347157 L5.9591875,18.9347157 Z M6.25264904,27.1130861 C6.20502885,27.1166833 6.15724038,27.118225 6.110125,27.118225 C5.05608654,27.1183963 4.16392308,26.2848685 4.08937981,25.1985074 C4.01147115,24.0634981 4.85534135,23.0756324 5.97029327,22.9963222 C6.17053365,22.9822759 6.34385096,23.1355861 6.35798558,23.3394287 C6.37195192,23.5431 6.22101442,23.7198778 6.02094231,23.7340954 C5.30546154,23.7849704 4.76413942,24.4187667 4.81411538,25.1469472 C4.83817788,25.4998176 4.99601442,25.8216833 5.25817788,26.0537898 C5.52034135,26.285725 5.85536538,26.3998083 6.202,26.375313 C6.40240865,26.3607528 6.57589423,26.5147481 6.58969231,26.7185907 C6.60382692,26.922262 6.45288942,27.0988685 6.25264904,27.1130861 L6.25264904,27.1130861 Z M5.35442788,9.2470537 C3.06024519,12.575512 2.17666346,16.6141648 2.86639904,20.6192435 C2.98065385,21.2828454 3.14034135,21.9471324 3.34075,22.5936046 C3.37877885,22.7159102 3.3516875,22.84935 3.26957212,22.946475 C2.80245673,23.4980491 2.54517308,24.2024194 2.54517308,24.9299148 C2.54517308,26.6063917 3.88493269,27.9704241 5.53195192,27.9704241 C5.69685577,27.9704241 5.86579808,27.9556926 6.03389904,27.9267435 C6.05409135,27.9233176 6.07445192,27.9216046 6.09447596,27.9216046 C6.19779327,27.9216046 6.29740865,27.9664843 6.36690385,28.0468222 C9.21149519,31.3317713 13.2975769,33.2158593 17.5776731,33.2158593 C18.4430817,33.2158593 19.3179135,33.1380907 20.1777692,32.9846093 C23.5705817,32.3790769 26.5629135,30.6676556 28.8308462,28.0353454 C28.9156538,27.93685 29.0455577,27.8917991 29.1719279,27.9159519 C29.3585385,27.9520954 29.5475048,27.9704241 29.7337788,27.9704241 C31.3806298,27.9704241 32.7203894,26.6063917 32.7203894,24.9299148 C32.7203894,24.1744981 32.4462788,23.4500861 31.9483702,22.8902898 C31.8620481,22.7931648 31.832601,22.6566417 31.8711346,22.5314241 C32.589476,20.1981972 32.7420962,17.7860028 32.3244519,15.3618176 C31.0674808,8.06288241 24.8805577,2.76537315 17.6135144,2.76537315 C16.7479375,2.76537315 15.8731058,2.84314167 15.01325,2.99662315 C11.0789471,3.69876667 7.64877885,5.91859537 5.35442788,9.2470537 L5.35442788,9.2470537 Z" id="Fill-11" fill="#FFC50A"></path>
                </g>
            </g>
        </g>
    </g>
</svg>